<svg width="100" height="100" viewBox="0 0 100 100" xmlns="http://www.w3.org/2000/svg">
  <defs>
    <linearGradient id="coffeeGradient" x1="0%" y1="0%" x2="100%" y2="100%">
      <stop offset="0%" style="stop-color:#6F4E37"/>
      <stop offset="50%" style="stop-color:#8B4513"/>
      <stop offset="100%" style="stop-color:#D2691E"/>
    </linearGradient>
  </defs>
  <circle cx="50" cy="50" r="48" fill="url(#coffeeGradient)" stroke="#FEBB2C" stroke-width="2"/>
  <g transform="translate(20,20)">
    <!-- Coffee cup -->
    <path d="M12 35 L38 35 L36 50 Q35 54 30 54 L20 54 Q15 54 14 50 Z" fill="#FFFFFF"/>
    <!-- Coffee liquid -->
    <path d="M13 37 L37 37 L35 48 Q34 51 30 51 L20 51 Q16 51 15 48 Z" fill="#8B4513"/>
    <!-- Coffee foam -->
    <ellipse cx="25" cy="37" rx="11" ry="3" fill="#F5F5DC"/>
    <!-- Handle -->
    <path d="M38 40 Q45 40 45 45 Q45 50 38 50" fill="none" stroke="#FFFFFF" stroke-width="3"/>
    <!-- Steam -->
    <path d="M20 30 Q22 25 20 20" fill="none" stroke="#E0E0E0" stroke-width="1.5" opacity="0.7"/>
    <path d="M25 30 Q27 25 25 20" fill="none" stroke="#E0E0E0" stroke-width="1.5" opacity="0.7"/>
    <path d="M30 30 Q32 25 30 20" fill="none" stroke="#E0E0E0" stroke-width="1.5" opacity="0.7"/>
    <!-- CCD Text -->
    <text x="25" y="65" text-anchor="middle" font-family="Arial, sans-serif" font-size="7" font-weight="bold" fill="#FFFFFF">CAFÉ</text>
    <text x="25" y="72" text-anchor="middle" font-family="Arial, sans-serif" font-size="7" font-weight="bold" fill="#FFFFFF">COFFEE DAY</text>
  </g>
</svg>