<svg width="100" height="100" viewBox="0 0 100 100" xmlns="http://www.w3.org/2000/svg">
  <defs>
    <linearGradient id="smoothieGradient" x1="0%" y1="0%" x2="100%" y2="100%">
      <stop offset="0%" style="stop-color:#FF6B35"/>
      <stop offset="50%" style="stop-color:#F7931E"/>
      <stop offset="100%" style="stop-color:#FFD23F"/>
    </linearGradient>
  </defs>
  <circle cx="50" cy="50" r="48" fill="url(#smoothieGradient)" stroke="#FEBB2C" stroke-width="2"/>
  <g transform="translate(20,20)">
    <!-- Glass/Cup shape -->
    <path d="M15 20 L45 20 L43 50 Q42 55 37.5 55 L22.5 55 Q18 55 17 50 Z" fill="#FFFFFF" opacity="0.9"/>
    <!-- Liquid in glass -->
    <path d="M16 22 L44 22 L42 48 Q41 52 37 52 L23 52 Q19 52 18 48 Z" fill="#FF6B35"/>
    <!-- Straw -->
    <rect x="35" y="10" width="3" height="25" fill="#E0E0E0" rx="1.5"/>
    <!-- Fruits floating -->
    <circle cx="25" cy="32" r="3" fill="#FF4444"/>
    <circle cx="35" cy="28" r="2.5" fill="#FFD700"/>
    <circle cx="30" cy="38" r="2" fill="#FF69B4"/>
    <!-- Text -->
    <text x="30" y="65" text-anchor="middle" font-family="Arial, sans-serif" font-size="6" font-weight="bold" fill="#2C3E50">SMOOTHIE</text>
    <text x="30" y="72" text-anchor="middle" font-family="Arial, sans-serif" font-size="6" font-weight="bold" fill="#2C3E50">ZONE</text>
  </g>
</svg>